# xmcd
#
# Track frame offsets: 
#        150
#        39110
#        44439
#        77158
#        82905
#        113785
#        128086
#        155539
#        192465
#        214373
#        264925
#        304582
#
# Disc length: 4220 seconds
#
# Revision: 0
# Processed by: cddbd v1.5.2PL0 Copyright (c) Steve Scherf et al.
# Submitted via: ExactAudioCopy v0.99pb4
#
DISCID=97107a0c
DTITLE=Tool - Lateralus
DYEAR=1900
DGENRE=Rock
TTITLE0=The Grudge
TTITLE1=Eon Blue Apocalypse
TTITLE2=The Patient
TTITLE3=Mantra
TTITLE4=Schism
TTITLE5=Parabol
TTITLE6=Parabola
TTITLE7=Ticks and Leeches
TTITLE8=Lateralus
TTITLE9=Disposition
TTITLE10=Reflection
TTITLE11=Triad
EXTD=
EXTT0=
EXTT1=
EXTT2=
EXTT3=
EXTT4=
EXTT5=
EXTT6=
EXTT7=
EXTT8=
EXTT9=
EXTT10=
EXTT11=
PLAYORDER=
